<?xml version="1.0" encoding="UTF-8" standalone="no"?>
<!-- Created with Inkscape (http://www.inkscape.org/) -->
<svg
   xmlns:dc="http://purl.org/dc/elements/1.1/"
   xmlns:cc="http://creativecommons.org/ns#"
   xmlns:rdf="http://www.w3.org/1999/02/22-rdf-syntax-ns#"
   xmlns:svg="http://www.w3.org/2000/svg"
   xmlns="http://www.w3.org/2000/svg"
   xmlns:sodipodi="http://sodipodi.sourceforge.net/DTD/sodipodi-0.dtd"
   xmlns:inkscape="http://www.inkscape.org/namespaces/inkscape"
   width="48"
   height="32"
   id="svg6170"
   sodipodi:version="0.32"
   inkscape:version="0.46"
   version="1.0"
   sodipodi:docname="noag.svg"
   inkscape:output_extension="org.inkscape.output.svg.inkscape">
  <defs
     id="defs6172">
    <inkscape:perspective
       sodipodi:type="inkscape:persp3d"
       inkscape:vp_x="0 : 24 : 1"
       inkscape:vp_y="0 : 1000 : 0"
       inkscape:vp_z="48 : 24 : 1"
       inkscape:persp3d-origin="24 : 16 : 1"
       id="perspective6178" />
  </defs>
  <sodipodi:namedview
     id="base"
     pagecolor="#ffffff"
     bordercolor="#666666"
     borderopacity="1.0"
     inkscape:pageopacity="0.0"
     inkscape:pageshadow="2"
     inkscape:zoom="8"
     inkscape:cx="17.683298"
     inkscape:cy="20.411566"
     inkscape:current-layer="layer1"
     showgrid="true"
     inkscape:grid-bbox="true"
     inkscape:document-units="px"
     inkscape:window-width="1283"
     inkscape:window-height="919"
     inkscape:window-x="84"
     inkscape:window-y="82" />
  <metadata
     id="metadata6175">
    <rdf:RDF>
      <cc:Work
         rdf:about="">
        <dc:format>image/svg+xml</dc:format>
        <dc:type
           rdf:resource="http://purl.org/dc/dcmitype/StillImage" />
      </cc:Work>
    </rdf:RDF>
  </metadata>
  <g
     id="layer1"
     inkscape:label="Layer 1"
     inkscape:groupmode="layer">
    <g
       id="g6777"
       transform="matrix(2.0973983,0,0,2.0973983,-22.828539,-10.638504)">
      <path
         id="path6721"
         d="M 13.18249,7.3017703 C 12.710607,7.5872624 12.24915,7.8631391 12.020815,8.5139533 C 11.96684,8.8439865 11.823317,9.2187941 12.020815,9.4230906 C 12.059533,11.064068 18.384776,16.090098 21.566757,19.423601 L 22.475894,19.625631 L 23.536554,19.171063 L 26.61752,17.150758 L 26.769042,15.989082 L 26.415489,15.029437 C 24.44366,11.291672 19.316925,5.6301037 17.273609,5.3319728 C 15.873206,5.402986 14.495689,6.5778276 13.18249,7.3017703 z"
         style="fill:none;fill-rule:evenodd;stroke:#000000;stroke-width:0.1;stroke-linecap:butt;stroke-linejoin:miter;stroke-miterlimit:4;stroke-dasharray:none;stroke-opacity:1" />
      <path
         id="path6719"
         d="M 13.232999,7.3017702 C 15.660926,10.07189 18.528893,13.229592 22.425387,17.201265 C 22.807587,17.558874 23.025795,18.019099 24.597214,16.948727 C 26.126241,16.057186 25.361346,15.840139 25.354829,15.332483 C 23.787955,12.950557 23.108724,11.137632 16.515994,5.5340033"
         style="fill:none;fill-rule:evenodd;stroke:#000000;stroke-width:0.1;stroke-linecap:butt;stroke-linejoin:miter;stroke-miterlimit:4;stroke-dasharray:none;stroke-opacity:1" />
      <path
         id="path6695"
         d="M 12.576399,7.6553237 C 15.330014,10.307924 22.467902,17.878424 22.576909,18.413448 C 22.685916,18.948472 22.526402,19.575124 22.526402,19.575124"
         style="fill:none;fill-rule:evenodd;stroke:#000000;stroke-width:0.1;stroke-linecap:butt;stroke-linejoin:miter;stroke-miterlimit:4;stroke-dasharray:none;stroke-opacity:1" />
      <path
         sodipodi:nodetypes="cc"
         id="path6703"
         d="M 18.046017,12.617327 C 19.526312,12.225298 20.856897,11.633654 21.768787,10.483751"
         style="fill:none;fill-rule:evenodd;stroke:#000000;stroke-width:0.1;stroke-linecap:butt;stroke-linejoin:miter;stroke-miterlimit:4;stroke-dasharray:none;stroke-opacity:1" />
      <path
         sodipodi:nodetypes="cc"
         id="path6705"
         d="M 18.602901,13.281073 C 20.083196,12.889044 21.413781,12.2974 22.325671,11.147497"
         style="fill:none;fill-rule:evenodd;stroke:#000000;stroke-width:0.1;stroke-linecap:butt;stroke-linejoin:miter;stroke-miterlimit:4;stroke-dasharray:none;stroke-opacity:1" />
      <path
         sodipodi:nodetypes="cc"
         id="path6707"
         d="M 19.245758,13.888217 C 20.726053,13.496188 22.056638,12.904544 22.968528,11.754641"
         style="fill:none;fill-rule:evenodd;stroke:#000000;stroke-width:0.1;stroke-linecap:butt;stroke-linejoin:miter;stroke-miterlimit:4;stroke-dasharray:none;stroke-opacity:1" />
      <path
         sodipodi:nodetypes="cc"
         id="path6709"
         d="M 19.817187,14.49536 C 21.297482,14.103331 22.520924,13.547401 23.432814,12.397498"
         style="fill:none;fill-rule:evenodd;stroke:#000000;stroke-width:0.1;stroke-linecap:butt;stroke-linejoin:miter;stroke-miterlimit:4;stroke-dasharray:none;stroke-opacity:1" />
      <path
         sodipodi:nodetypes="cc"
         id="path6711"
         d="M 20.406472,15.084645 C 21.886767,14.692616 22.931638,14.208115 23.843528,13.058212"
         style="fill:none;fill-rule:evenodd;stroke:#000000;stroke-width:0.1;stroke-linecap:butt;stroke-linejoin:miter;stroke-miterlimit:4;stroke-dasharray:none;stroke-opacity:1" />
      <path
         sodipodi:nodetypes="cc"
         id="path6713"
         d="M 21.29933,16.013217 C 22.779625,15.621188 23.681638,15.243829 24.593528,14.093926"
         style="fill:none;fill-rule:evenodd;stroke:#000000;stroke-width:0.1;stroke-linecap:butt;stroke-linejoin:miter;stroke-miterlimit:4;stroke-dasharray:none;stroke-opacity:1" />
      <path
         sodipodi:nodetypes="cc"
         id="path6715"
         d="M 22.1029,16.816789 C 23.583195,16.42476 24.306637,16.190258 25.218527,15.040355"
         style="fill:none;fill-rule:evenodd;stroke:#000000;stroke-width:0.02;stroke-linecap:butt;stroke-linejoin:miter;stroke-miterlimit:4;stroke-dasharray:none;stroke-opacity:1" />
      <path
         sodipodi:nodetypes="cczzc"
         id="path6723"
         d="M 23.464286,18.785714 L 25.964286,17.178571 C 25.979933,17.115389 26.116736,16.88849 25.756128,16.861475 C 25.420628,16.836341 23.835673,17.681082 23.55484,18.174239 C 23.280401,18.656167 23.366429,18.62457 23.464286,18.785714 z"
         style="fill:#808080;fill-rule:evenodd;stroke:#000000;stroke-width:0.09999997;stroke-linecap:butt;stroke-linejoin:miter;stroke-miterlimit:4;stroke-dasharray:none;stroke-opacity:1" />
      <path
         sodipodi:nodetypes="cccccc"
         id="path6725"
         d="M 17.399878,11.847457 C 18.128534,11.730919 18.727619,11.601424 18.788837,11.418142 L 19.066629,11.569665 C 19.397026,11.129807 19.840557,11.029349 20.304066,10.988827 L 20.228305,10.685781 C 20.607135,10.438863 20.981485,10.190451 21.162696,9.8776592"
         style="fill:none;fill-rule:evenodd;stroke:#000000;stroke-width:0.1;stroke-linecap:butt;stroke-linejoin:miter;stroke-miterlimit:4;stroke-dasharray:none;stroke-opacity:1" />
      <path
         transform="translate(0.2272843,-0.2525381)"
         d="M 16.036172,7.2765164 A 0.65659916,0.45456865 0 1 1 14.722974,7.2765164 A 0.65659916,0.45456865 0 1 1 16.036172,7.2765164 z"
         sodipodi:ry="0.45456865"
         sodipodi:rx="0.65659916"
         sodipodi:cy="7.2765164"
         sodipodi:cx="15.379573"
         id="path6727"
         style="fill:#e6e6e6;fill-opacity:1;stroke:#000000;stroke-width:0.05;stroke-miterlimit:4;stroke-dasharray:none;stroke-opacity:1"
         sodipodi:type="arc" />
      <path
         id="path6729"
         d="M 16.312034,10.646572 C 15.29154,9.5267798 13.32449,7.323327 13.32449,7.2999806 C 13.32449,7.2936201 13.389834,7.2516246 13.4697,7.2066566 C 13.549565,7.1616887 13.899014,6.94658 14.246254,6.728638 C 15.272509,6.0845186 15.671039,5.8631767 16.155419,5.6682978 C 16.327663,5.5989996 16.47223,5.5529483 16.47668,5.5659618 C 16.481129,5.5789756 16.719628,5.7917804 17.006676,6.0388617 C 17.68735,6.6247618 18.543013,7.3848831 19.158121,7.9500784 C 19.872309,8.6063139 21.102665,9.807559 21.102665,9.8486131 C 21.102665,9.9211161 20.761264,10.242032 20.468152,10.445053 C 20.138386,10.673462 20.161047,10.637022 20.208048,10.863323 C 20.223125,10.935917 20.218772,10.945398 20.170366,10.945398 C 20.140265,10.945398 20.028043,10.962809 19.920984,10.984089 C 19.659332,11.036098 19.354166,11.188062 19.18428,11.350947 L 19.047881,11.481726 L 18.910247,11.414225 L 18.772615,11.346723 L 18.697421,11.423632 C 18.602698,11.520518 18.345848,11.603897 17.832933,11.704263 C 17.624239,11.7451 17.433137,11.783311 17.408262,11.789176 C 17.374863,11.797051 17.088189,11.498249 16.312034,10.646572 L 16.312034,10.646572 z M 15.969616,7.4361256 C 16.43466,7.2339312 16.387926,6.742493 15.887752,6.5752716 C 15.7471,6.528248 15.45873,6.5327765 15.306114,6.5844057 C 15.236226,6.6080486 15.135377,6.6633875 15.082006,6.7073806 C 14.768429,6.9658577 14.923505,7.3689149 15.382676,7.488846 C 15.522124,7.5252691 15.827722,7.4978192 15.969616,7.4361256 z"
         style="fill:#000000;fill-opacity:1;stroke:#000000;stroke-width:0.00126269;stroke-miterlimit:4;stroke-dasharray:none;stroke-opacity:1" />
      <path
         id="path6735"
         d="M 18.406635,12.920568 L 18.151383,12.646077 L 18.282259,12.612979 C 18.739882,12.49725 19.510698,12.209537 19.937779,11.995044 C 20.632593,11.646088 21.234785,11.2015 21.61034,10.760222 C 21.699193,10.65582 21.778955,10.569543 21.78759,10.568495 C 21.811962,10.565539 22.250707,11.06755 22.259653,11.108629 C 22.2718,11.164404 21.650946,11.774589 21.380457,11.972716 C 20.771878,12.418488 20.094608,12.749919 19.208629,13.03553 C 18.613644,13.227334 18.703937,13.240276 18.406636,12.920568 L 18.406635,12.920568 z"
         style="fill:#808080;fill-opacity:1;stroke:#000000;stroke-width:0.00126269;stroke-miterlimit:4;stroke-dasharray:none;stroke-opacity:1" />
      <path
         id="path6737"
         d="M 19.018414,13.568396 C 18.883889,13.42976 18.779259,13.310893 18.785905,13.304247 C 18.792552,13.297601 18.950045,13.246369 19.135891,13.190397 C 19.769571,12.999552 20.458668,12.703586 20.93787,12.416451 C 21.378271,12.152565 21.670641,11.923752 22.031391,11.560644 C 22.215786,11.375044 22.370967,11.22319 22.376239,11.22319 C 22.390283,11.22319 22.831051,11.750994 22.840973,11.779693 C 22.852798,11.813896 22.602196,12.08722 22.370767,12.292528 C 21.62871,12.950835 20.72128,13.405212 19.393655,13.783259 L 19.263008,13.820461 L 19.018414,13.568396 z"
         style="fill:#808080;fill-opacity:1;stroke:#000000;stroke-width:0.00126269;stroke-miterlimit:4;stroke-dasharray:none;stroke-opacity:1" />
      <path
         id="path6739"
         d="M 19.591994,14.177928 L 19.35664,13.925433 L 19.423173,13.900138 C 19.459768,13.886224 19.499554,13.874841 19.511587,13.874841 C 19.563985,13.874841 20.357225,13.606006 20.610215,13.502507 C 21.488712,13.143113 22.131757,12.726174 22.700021,12.147513 C 22.835473,12.009583 22.950153,11.901442 22.954865,11.9072 C 23.201249,12.208308 23.326376,12.391255 23.313559,12.431639 C 23.290728,12.503572 22.797525,12.991542 22.561798,13.175422 C 21.931689,13.666945 21.112991,14.058153 20.117766,14.343284 C 19.985815,14.381087 19.866491,14.416159 19.852601,14.42122 C 19.838711,14.426282 19.721438,14.316799 19.591993,14.177928 L 19.591994,14.177928 z"
         style="fill:#808080;fill-opacity:1;stroke:#000000;stroke-width:0.00126269;stroke-miterlimit:4;stroke-dasharray:none;stroke-opacity:1" />
      <path
         id="path6741"
         d="M 20.160109,14.770901 L 19.937285,14.531599 L 20.003916,14.506265 C 20.040563,14.492332 20.080084,14.480932 20.091742,14.480932 C 20.1034,14.480932 20.275964,14.42862 20.475219,14.364682 C 21.709279,13.968692 22.648606,13.39772 23.3045,12.644896 L 23.418985,12.513491 L 23.601695,12.765594 C 23.81751,13.063373 23.832834,13.001237 23.442598,13.410693 C 23.064451,13.807463 22.559696,14.178976 22.045786,14.438783 C 21.690656,14.618319 20.556375,15.014089 20.406574,15.010733 C 20.39357,15.010442 20.282661,14.902517 20.160108,14.7709 L 20.160109,14.770901 z"
         style="fill:#808080;fill-opacity:1;stroke:#000000;stroke-width:0.00126269;stroke-miterlimit:4;stroke-dasharray:none;stroke-opacity:1" />
      <path
         sodipodi:nodetypes="cc"
         id="path6743"
         d="M 19.041375,11.54441 L 21.869803,14.625376"
         style="fill:none;fill-rule:evenodd;stroke:#000000;stroke-width:0.1;stroke-linecap:butt;stroke-linejoin:miter;stroke-miterlimit:4;stroke-dasharray:none;stroke-opacity:1" />
      <path
         id="path6745"
         d="M 20.304066,10.988827 L 22.98097,13.867762"
         style="fill:none;fill-rule:evenodd;stroke:#000000;stroke-width:0.1;stroke-linecap:butt;stroke-linejoin:miter;stroke-miterlimit:4;stroke-dasharray:none;stroke-opacity:1" />
      <path
         d="M 24.496199,16.330009 A 0.65659916,0.49244937 0 1 1 23.183,16.330009 A 0.65659916,0.49244937 0 1 1 24.496199,16.330009 z"
         sodipodi:ry="0.49244937"
         sodipodi:rx="0.65659916"
         sodipodi:cy="16.330009"
         sodipodi:cx="23.8396"
         id="path6751"
         style="fill:none;fill-opacity:1;stroke:#000000;stroke-width:0.1;stroke-miterlimit:4;stroke-dasharray:none;stroke-opacity:1"
         sodipodi:type="arc" />
      <path
         d="M 24.092138,16.330009 A 0.18940361,0.16414979 0 1 1 23.713331,16.330009 A 0.18940361,0.16414979 0 1 1 24.092138,16.330009 z"
         sodipodi:ry="0.16414979"
         sodipodi:rx="0.18940361"
         sodipodi:cy="16.330009"
         sodipodi:cx="23.902735"
         id="path6753"
         style="fill:#cccccc;fill-opacity:1;stroke:#000000;stroke-width:0.1;stroke-miterlimit:4;stroke-dasharray:none;stroke-opacity:1"
         sodipodi:type="arc" />
      <path
         id="path6757"
         d="M 20.893118,15.535279 C 20.54563,15.171526 20.507291,15.123051 20.555654,15.108594 C 21.256845,14.898976 21.80128,14.700461 22.143063,14.529783 C 22.641485,14.280883 23.14848,13.900641 23.562929,13.464895 L 23.872982,13.138907 L 24.100607,13.487934 C 24.225802,13.679898 24.365024,13.896894 24.409992,13.970146 L 24.49175,14.103332 L 24.429599,14.184803 C 24.040356,14.695037 23.358514,15.207216 22.696045,15.486997 C 22.343346,15.635951 21.402255,15.945653 21.302324,15.945653 C 21.292874,15.945653 21.108732,15.760985 20.893118,15.535279 L 20.893118,15.535279 z"
         style="fill:#ececec;fill-opacity:1;stroke:#000000;stroke-width:0.00252538;stroke-miterlimit:4;stroke-dasharray:none;stroke-opacity:1" />
      <path
         id="path6759"
         d="M 21.897451,16.570685 C 21.786558,16.456096 21.629241,16.292502 21.547857,16.207144 L 21.399887,16.051946 L 21.548008,16.011311 C 21.887481,15.918183 22.54822,15.690215 22.805366,15.577498 C 23.444042,15.297543 24.0068,14.875665 24.482194,14.320444 C 24.528041,14.266899 24.569236,14.227125 24.573741,14.232056 C 24.578245,14.236986 24.706613,14.434983 24.859002,14.672048 L 25.136072,15.103076 L 25.061533,15.189752 C 24.912744,15.362765 24.497018,15.771881 24.40489,15.835953 L 24.310477,15.901615 L 24.177606,15.844254 C 24.075318,15.800096 23.996904,15.786854 23.836937,15.786724 C 23.650805,15.786572 23.61131,15.795507 23.45813,15.872417 C 23.221539,15.991208 23.135597,16.11526 23.135597,16.337969 C 23.135597,16.459057 23.126263,16.501366 23.097716,16.509678 C 23.076882,16.515745 22.860217,16.57883 22.61624,16.649869 C 22.372263,16.720907 22.156091,16.779029 22.13586,16.779029 C 22.115629,16.779029 22.008344,16.685275 21.897451,16.570685 L 21.897451,16.570685 z"
         style="fill:#ececec;fill-opacity:1;stroke:#000000;stroke-width:0.00252538;stroke-miterlimit:4;stroke-dasharray:none;stroke-opacity:1" />
      <path
         id="path6761"
         d="M 23.03306,17.534423 C 22.962776,17.525431 22.860498,17.489212 22.805776,17.453937 C 22.650958,17.354135 22.146647,16.834095 22.190066,16.819022 C 22.210082,16.812072 22.368512,16.766443 22.542132,16.717623 C 22.715752,16.668803 22.926794,16.607485 23.011115,16.581361 L 23.164425,16.533862 L 23.246574,16.63171 C 23.291754,16.685525 23.387546,16.760156 23.459443,16.797555 C 23.573993,16.857141 23.619846,16.865669 23.830077,16.866486 C 24.043058,16.867314 24.08623,16.859442 24.214682,16.796365 C 24.557674,16.627935 24.658134,16.268507 24.431555,16.020434 L 24.354351,15.935906 L 24.45208,15.858885 C 24.615585,15.730027 24.813266,15.538919 24.99149,15.337411 L 25.160911,15.145855 L 25.225197,15.249022 C 25.260554,15.305764 25.297613,15.391964 25.307551,15.440577 C 25.317489,15.489191 25.356623,15.602833 25.394516,15.693115 C 25.490169,15.921013 25.502186,15.983494 25.471954,16.095769 C 25.417439,16.298221 25.160852,16.521655 24.499303,16.942745 C 23.740555,17.425704 23.365683,17.576978 23.03306,17.534423 L 23.03306,17.534423 z"
         style="fill:#ececec;fill-opacity:1;stroke:#000000;stroke-width:0.00252538;stroke-miterlimit:4;stroke-dasharray:none;stroke-opacity:1" />
      <path
         id="path6763"
         d="M 20.543483,11.153648 C 20.392072,10.995169 20.351185,10.93502 20.329017,10.838147 L 20.301628,10.718457 L 20.58219,10.519993 C 20.7365,10.410838 20.940702,10.23877 21.035973,10.137619 L 21.209192,9.9537091 L 21.450914,10.195431 C 21.657204,10.401721 21.68919,10.444567 21.669128,10.487737 C 21.599836,10.636849 20.847547,11.348825 20.758775,11.349306 C 20.743256,11.349391 20.646375,11.261345 20.543483,11.153649 L 20.543483,11.153648 z"
         style="fill:#ececec;fill-opacity:1;stroke:#000000;stroke-width:0.00252538;stroke-miterlimit:4;stroke-dasharray:none;stroke-opacity:1" />
      <path
         id="path6765"
         d="M 19.36497,11.804742 C 19.163798,11.586603 19.157434,11.576016 19.193961,11.520268 C 19.298465,11.360775 19.643714,11.169248 19.9327,11.110452 C 20.276962,11.040409 20.259411,11.035739 20.467142,11.252658 L 20.652367,11.446076 L 20.372915,11.611957 C 20.143742,11.747991 19.608808,12.031312 19.581136,12.031312 C 19.577167,12.031312 19.479892,11.929355 19.36497,11.804741 L 19.36497,11.804742 z"
         style="fill:#ececec;fill-opacity:1;stroke:#000000;stroke-width:0.00252538;stroke-miterlimit:4;stroke-dasharray:none;stroke-opacity:1" />
      <path
         id="path6773"
         d="M 22.643337,19.292186 C 22.657138,19.181731 22.667746,18.947681 22.666912,18.772074 C 22.664779,18.323127 22.649044,18.295518 21.878375,17.388434 C 20.368228,15.610978 16.476224,11.463173 13.742227,8.7175369 C 13.187316,8.1602634 12.733298,7.6981251 12.733298,7.6905616 C 12.733298,7.6682244 13.155113,7.3884341 13.188789,7.3884341 C 13.205751,7.3884341 13.628507,7.8504173 14.128249,8.4150634 C 15.185541,9.6096723 16.998696,11.605854 17.818408,12.47772 C 18.132361,12.811648 18.61497,13.325934 18.890873,13.620577 C 19.166774,13.91522 19.570836,14.341113 19.788787,14.567006 C 22.67958,17.563146 22.695646,17.578957 22.910077,17.638526 C 23.171147,17.711053 23.513304,17.643974 23.91147,17.442208 C 24.280116,17.2554 25.185169,16.652941 25.364184,16.47519 C 25.669006,16.172519 25.677263,16.083604 25.456816,15.47772 C 25.28495,15.005355 23.85956,12.8354 23.083821,11.865168 C 21.763342,10.213617 19.649281,8.1221587 17.132748,5.9777198 C 16.856134,5.7420055 16.62899,5.5382341 16.627984,5.5248948 C 16.625249,5.4886223 16.994974,5.4190123 17.207657,5.4157566 C 17.86219,5.4057376 19.185784,6.3230101 20.797224,7.9033851 C 22.334816,9.4113359 23.708719,11.034441 24.956436,12.817006 C 25.789275,14.00685 26.294538,14.880689 26.534701,15.546572 L 26.701224,16.008281 L 26.627882,16.561545 C 26.587545,16.865841 26.550565,17.117387 26.545705,17.120537 C 26.540847,17.123687 25.85585,17.572242 25.023492,18.117326 C 23.756053,18.947329 23.437645,19.139641 23.06418,19.300701 L 22.618245,19.493013 L 22.643337,19.292186 z M 24.744365,18.044891 C 25.4356,17.600586 26.012963,17.21889 26.027394,17.196677 C 26.078294,17.118334 26.054964,16.935434 25.986126,16.873136 C 25.892346,16.788265 25.640529,16.793133 25.396224,16.884539 C 24.897802,17.071024 24.119583,17.530548 23.759943,17.850736 C 23.578736,18.012067 23.363629,18.344414 23.324185,18.524001 C 23.298914,18.639064 23.381104,18.85272 23.45064,18.85272 C 23.470955,18.85272 24.053131,18.489197 24.744366,18.044892 L 24.744365,18.044891 z"
         style="fill:#cccccc;fill-opacity:1;stroke:#000000;stroke-width:0.00357143;stroke-miterlimit:4;stroke-dasharray:none;stroke-opacity:1" />
      <path
         id="path6775"
         d="M 21.956508,19.44645 L 21.626147,19.369825 L 20.992223,18.742196 C 20.283972,18.040978 19.491605,17.291321 18.090104,15.996504 C 16.091873,14.150381 15.503282,13.591392 14.481321,12.56921 C 12.908053,10.995604 12.285319,10.204891 12.110342,9.5586769 C 12.082329,9.4552226 12.038997,9.3189684 12.014048,9.2558912 C 11.976273,9.1603884 11.978583,9.0898612 12.027859,8.8342512 C 12.103893,8.4398505 12.221693,8.1859623 12.433942,7.9590512 L 12.603867,7.7773873 L 13.49343,8.6632676 C 16.632223,11.789061 21.751453,17.298446 22.38248,18.229784 C 22.544674,18.469169 22.575162,18.669376 22.521991,19.145955 C 22.500711,19.336699 22.483298,19.501431 22.483298,19.512027 C 22.483298,19.547736 22.288805,19.523524 21.956508,19.44645 z"
         style="fill:#cccccc;fill-opacity:1;stroke:#000000;stroke-width:0.00357143;stroke-miterlimit:4;stroke-dasharray:none;stroke-opacity:1" />
    </g>
    <path
       style="fill:#ff0000;fill-opacity:1;stroke:#000000;stroke-width:0.58778471;stroke-miterlimit:4;stroke-dasharray:none;stroke-opacity:1"
       d="M 24.662466,7.718146 L 30.31932,13.375 L 24.662466,19.031854 L 27.093146,21.462534 L 32.75,15.80568 L 38.406854,21.462534 L 40.837534,19.031854 L 35.18068,13.375 L 40.837534,7.718146 L 38.406854,5.287466 L 32.75,10.94432 L 27.093146,5.287466 L 24.662466,7.718146 z"
       id="rect5385" />
  </g>
</svg>
