<?xml version="1.0" encoding="UTF-8" standalone="no"?>
<!-- Created with Inkscape (http://www.inkscape.org/) -->
<svg
   xmlns:dc="http://purl.org/dc/elements/1.1/"
   xmlns:cc="http://creativecommons.org/ns#"
   xmlns:rdf="http://www.w3.org/1999/02/22-rdf-syntax-ns#"
   xmlns:svg="http://www.w3.org/2000/svg"
   xmlns="http://www.w3.org/2000/svg"
   xmlns:sodipodi="http://sodipodi.sourceforge.net/DTD/sodipodi-0.dtd"
   xmlns:inkscape="http://www.inkscape.org/namespaces/inkscape"
   width="48px"
   height="48px"
   id="svg3992"
   sodipodi:version="0.32"
   inkscape:version="0.46"
   sodipodi:docname="swapcall.svg"
   inkscape:output_extension="org.inkscape.output.svg.inkscape"
   inkscape:export-filename="/vhome/samr7/sf/nohands/trunk/data/swapcall.png"
   inkscape:export-xdpi="90"
   inkscape:export-ydpi="90">
  <defs
     id="defs3994">
    <inkscape:perspective
       sodipodi:type="inkscape:persp3d"
       inkscape:vp_x="0 : 24 : 1"
       inkscape:vp_y="0 : 1000 : 0"
       inkscape:vp_z="48 : 24 : 1"
       inkscape:persp3d-origin="24 : 16 : 1"
       id="perspective4000" />
  </defs>
  <sodipodi:namedview
     id="base"
     pagecolor="#ffffff"
     bordercolor="#666666"
     borderopacity="1.0"
     inkscape:pageopacity="0.0"
     inkscape:pageshadow="2"
     inkscape:zoom="3.8890872"
     inkscape:cx="6.1704756"
     inkscape:cy="24.31428"
     inkscape:current-layer="layer1"
     showgrid="true"
     inkscape:grid-bbox="true"
     inkscape:document-units="px"
     inkscape:window-width="1056"
     inkscape:window-height="681"
     inkscape:window-x="-1"
     inkscape:window-y="10" />
  <metadata
     id="metadata3997">
    <rdf:RDF>
      <cc:Work
         rdf:about="">
        <dc:format>image/svg+xml</dc:format>
        <dc:type
           rdf:resource="http://purl.org/dc/dcmitype/StillImage" />
      </cc:Work>
    </rdf:RDF>
  </metadata>
  <g
     id="layer1"
     inkscape:label="Layer 1"
     inkscape:groupmode="layer">
    <path
       style="fill:#ffff00;fill-opacity:1;fill-rule:evenodd;stroke:#000000;stroke-width:0.61328584;stroke-linecap:butt;stroke-linejoin:miter;stroke-miterlimit:4;stroke-dasharray:none;stroke-opacity:1"
       d="M 45.693356,44.693357 C 30.306642,44.693357 30.306642,33.656896 30.306642,23.999999 C 30.306642,14.343103 30.306642,3.3066427 45.693356,3.3066427 L 45.693356,3.3066427 L 45.693356,14.343103 C 45.693356,14.343103 39.798447,17.102214 39.798446,17.102214 C 38.79931,17.102214 38.79931,30.897784 39.798446,30.897784 C 39.798446,30.897784 45.693356,33.656896 45.693356,33.656896 L 45.693356,44.693357 C 45.693356,44.693357 45.693356,44.693357 45.693356,44.693357 z"
       id="path2383"
       sodipodi:nodetypes="ccsccccccc" />
    <path
       style="fill:#ffff00;fill-opacity:1;fill-rule:evenodd;stroke:#000000;stroke-width:0.6132859;stroke-linecap:butt;stroke-linejoin:miter;stroke-miterlimit:4;stroke-dasharray:none;stroke-opacity:1"
       d="M 2.3066431,3.3066427 C 17.693358,3.3066427 17.693358,14.343103 17.693358,23.999998 C 17.693358,33.656895 17.693358,44.693357 2.3066431,44.693357 L 2.3066431,44.693357 L 2.3066431,33.656895 C 2.3066431,33.656895 8.2015525,30.897785 8.2015535,30.897785 C 9.2006904,30.897785 9.2006904,17.102215 8.2015535,17.102215 C 8.2015535,17.102215 2.3066431,14.343103 2.3066431,14.343103 L 2.3066431,3.3066427 C 2.3066431,3.3066427 2.3066431,3.3066427 2.3066431,3.3066427 z"
       id="path4047"
       sodipodi:nodetypes="ccsccccccc" />
    <path
       id="path4061"
       style="fill:#0000ff;fill-opacity:1;stroke:#000000;stroke-width:0.25087741;stroke-miterlimit:4;stroke-opacity:1"
       d="M 25.78773,18.884736 C 21.88375,17.463803 17.56979,19.457851 16.158353,23.335742 C 16.158353,23.335742 16.158353,23.335742 16.158353,23.335742 L 11.4434,21.619639 C 13.811742,15.112672 21.014621,11.753691 27.521256,14.121912 L 28.799732,10.609329 L 33.726923,19.077476 L 24.509256,22.397315 L 25.827542,18.899223"
       sodipodi:nodetypes="ccccccccc" />
    <path
       id="path4082"
       style="fill:#0000ff;fill-opacity:1;stroke:#000000;stroke-width:0.25087741;stroke-miterlimit:4;stroke-opacity:1"
       d="M 21.996146,30.145756 C 25.900126,31.566689 30.214086,29.572641 31.625523,25.69475 C 31.625523,25.69475 31.625523,25.69475 31.625523,25.69475 L 36.340476,27.410853 C 33.972134,33.91782 26.769255,37.276801 20.26262,34.90858 L 18.984144,38.421163 L 14.056953,29.953016 L 23.27462,26.633177 L 21.956334,30.131269"
       sodipodi:nodetypes="ccccccccc" />
  </g>
</svg>
